PathFileType	4	(X/Y/Z)	s05c0102.trc
DataRate	CameraRate	NumFrames	NumMarkers	Units	OrigDataRate	OrigDataStartFrame	OrigNumFrames
200	200	7	50	mm	200	1000	2000
Frame#	Time	racr			lacr			c7			jug			rlel			rdr			llel			ldr			s2			lic			ric			lasi			rasi			rpsi			lpsi			rgt			lgt			rth1			rth2			rth3			rth4			rlfc			rmfc			rsh1			rsh2			rsh3			rsh4			rlmal			rmmal			rcal			rtoe			rmt5			lth1			lth2			lth4			lth3			llfc			lmfc			lsh1			lsh2			lsh3			lsh4			llmal			lmmal			lcal			ltoe			lmt5			SBIKE			LBIKE			RBIKE			
		X1	Y1	Z1	X2	Y2	Z2	X3	Y3	Z3	X4	Y4	Z4	X5	Y5	Z5	X6	Y6	Z6	X7	Y7	Z7	X8	Y8	Z8	X9	Y9	Z9	X10	Y10	Z10	X11	Y11	Z11	X12	Y12	Z12	X13	Y13	Z13	X14	Y14	Z14	X15	Y15	Z15	X16	Y16	Z16	X17	Y17	Z17	X18	Y18	Z18	X19	Y19	Z19	X20	Y20	Z20	X21	Y21	Z21	X22	Y22	Z22	X23	Y23	Z23	X24	Y24	Z24	X25	Y25	Z25	X26	Y26	Z26	X27	Y27	Z27	X28	Y28	Z28	X29	Y29	Z29	X30	Y30	Z30	X31	Y31	Z31	X32	Y32	Z32	X33	Y33	Z33	X34	Y34	Z34	X35	Y35	Z35	X36	Y36	Z36	X37	Y37	Z37	X38	Y38	Z38	X39	Y39	Z39	X40	Y40	Z40	X41	Y41	Z41	X42	Y42	Z42	X43	Y43	Z43	X44	Y44	Z44	X45	Y45	Z45	X46	Y46	Z46	X47	Y47	Z47	X48	Y48	Z48	X49	Y49	Z49	X50	Y50	Z50	
1000	5.0000	476.002279	1305.214628	-195.308691	456.407954	1287.134111	-449.316699	448.815191	1362.746665	-334.486662	387.597886	1212.449950	-312.509939	505.732840	1087.555576	-27.766599	691.594272	933.653537	-100.047334	454.302847	1029.336439	-585.393086	678.173941	919.221824	-490.644959	-105.346603	1177.544970	-257.689019	17.292825	1187.725891	-413.820889	54.119591	1204.049398	-127.258526	69.613422	1138.110461	-378.807688	93.730530	1139.444826	-158.990035	-67.458451	1225.950678	-219.654185	-74.775386	1227.202106	-306.534512	6.664382	1060.492736	-101.585600	-28.415011	1100.032658	-438.773339	84.070582	960.209728	-92.539981	149.382636	899.195367	-94.946233	173.614319	814.697142	-104.712401	179.303748	918.675918	-106.088814	259.715938	693.532261	-133.154958	233.630027	685.078372	-238.225753	224.087730	592.052189	-98.727938	238.896228	505.354989	-110.093075	212.388639	423.517307	-110.301982	264.788394	506.041585	-138.967298	205.955161	289.426198	-117.730953	213.560455	313.995674	-197.204285	135.323182	256.682661	-159.677938	431.874721	228.742284	-159.194431	330.512953	209.647007	-92.960007	90.470085	1027.562487	-455.496411	176.046358	1017.386655	-452.689112	190.181226	1047.926884	-434.670440	247.762816	962.604816	-458.793362	365.783536	868.341691	-430.078477	350.551294	849.804290	-321.963847	268.903279	790.649778	-452.678881	221.321163	718.363415	-441.985835	141.709486	678.840139	-441.662247	243.976338	695.425000	-421.029133	56.183957	593.631199	-437.250680	94.809036	599.300182	-361.819682	-13.735403	602.999772	-392.125682	183.651385	383.530874	-402.120585	87.902872	441.668457	-461.827552	-219.735234	911.259254	-273.659066	-53.391735	79.592809	-474.983494	-53.393721	79.204532	-77.352501	
1001	5.0050	476.696389	1305.256334	-196.613730	455.213990	1287.838213	-450.465690	448.648611	1363.124104	-335.442693	387.595145	1212.835403	-313.500053	506.975410	1088.216109	-27.958887	692.082644	933.275222	-100.150640	454.085104	1029.854918	-585.297780	678.237090	919.678584	-490.337119	-104.819291	1178.013068	-255.069128	16.676149	1189.394435	-412.156259	56.007374	1203.375994	-125.453935	69.153014	1139.597256	-377.416383	94.682470	1138.853813	-158.029939	-66.661499	1225.938465	-217.153358	-74.563258	1228.082752	-303.705134	6.794719	1059.588136	-100.583879	-28.598357	1102.764110	-437.450930	81.620225	958.178615	-91.099921	145.394507	895.439992	-93.294198	167.532716	810.313155	-102.847785	175.856334	914.134038	-104.254260	251.367507	687.623224	-131.134871	224.176704	678.956750	-235.605649	216.246757	586.244246	-96.879004	231.515278	499.736251	-108.165684	205.392880	417.688698	-108.766214	257.446850	500.418302	-137.212626	200.100151	283.556481	-116.757131	207.616025	307.981228	-196.145128	129.032361	251.754583	-158.391126	425.254933	219.496272	-159.473544	323.954160	201.929903	-92.738994	90.666606	1032.143017	-454.594456	176.464716	1023.487834	-452.116045	190.023740	1054.022846	-433.550754	249.075328	970.121223	-458.911213	368.880027	877.595239	-430.118514	354.062745	858.751229	-321.619938	272.954142	799.666326	-452.581657	225.515504	727.265730	-442.100086	145.971815	687.537875	-441.384136	248.391655	704.467329	-421.636608	60.749012	601.331149	-436.854198	99.312734	607.317335	-361.570430	-9.530311	609.800889	-392.031556	191.139466	393.159579	-401.984877	94.587810	449.952531	-461.762640	-219.732108	911.296291	-273.578681	-53.382472	79.634644	-474.975030	-53.387393	79.195305	-77.340677	
1002	5.0100	477.227132	1305.184863	-197.747377	454.009404	1288.578783	-451.434213	448.445823	1363.421199	-336.237813	387.518615	1213.183228	-314.421424	508.058832	1088.722209	-27.908346	692.618992	932.785536	-100.155768	453.878612	1030.411253	-585.252005	678.306776	920.176006	-489.926479	-104.346182	1178.429877	-252.603333	15.722814	1190.739058	-410.151558	57.614131	1202.797755	-123.907761	68.706337	1141.127136	-376.239138	95.528343	1137.901930	-157.133399	-65.801538	1225.941940	-214.494679	-74.441794	1228.840007	-300.975664	6.727155	1058.761354	-99.678899	-28.798364	1105.358368	-436.147743	79.117502	956.323761	-89.747189	141.431452	892.055634	-91.516408	161.541454	806.464855	-100.933872	172.317932	909.933398	-102.374661	243.155211	682.108260	-129.086815	216.309679	673.466918	-234.174053	208.221249	580.956511	-94.973761	223.792238	494.579640	-106.307076	197.871151	412.410787	-107.061936	249.801343	495.296822	-135.279809	193.643611	278.214087	-115.637470	201.044492	302.663224	-194.897872	122.360133	247.416078	-157.115322	418.148504	210.638973	-159.745532	316.913824	194.490954	-92.440324	90.697150	1036.540096	-453.792445	176.604977	1029.569435	-451.765493	189.732576	1059.998874	-432.558056	250.227909	977.249903	-458.874135	372.025631	886.840082	-429.912600	357.643254	867.975685	-320.397210	276.842095	808.722359	-452.367878	229.752287	735.969033	-442.136146	150.411736	695.890548	-441.174709	252.842396	713.091671	-421.904954	65.634631	608.487136	-436.591358	104.136562	614.920386	-361.527741	-5.115982	616.060945	-391.753216	199.169147	402.515173	-401.997275	101.827017	457.787353	-461.667479	-219.726393	911.358918	-273.456225	-53.387711	79.686791	-474.953416	-53.367324	79.222693	-77.321130	
1003	5.0150	477.641820	1304.948463	-198.841347	452.945616	1289.194581	-452.393872	448.186769	1363.613301	-336.932301	387.371166	1213.485111	-315.275322	509.076146	1089.057067	-27.876207	693.041028	932.286730	-100.147853	453.695884	1030.952634	-585.353802	678.311571	920.785484	-489.490806	-103.964972	1178.817282	-250.278615	14.751406	1192.219091	-408.306723	57.024057	1201.230166	-124.260472	68.080393	1142.487052	-374.912902	96.211911	1136.856344	-156.334522	-64.864598	1225.904117	-212.062891	-74.467333	1229.507607	-298.199971	6.514843	1058.005676	-99.013004	-29.099117	1107.719005	-434.883404	76.573609	954.636265	-88.394475	137.562381	888.982994	-89.625816	155.796645	803.019942	-98.389009	168.820170	906.254504	-100.396884	235.138529	677.124987	-126.905454	208.322438	668.405692	-232.090181	200.210486	576.230266	-93.000097	215.926591	489.859108	-104.254071	190.096302	407.649259	-105.307329	242.156080	490.580117	-133.144400	186.935462	273.328007	-114.557277	194.217953	297.759927	-193.604621	115.238016	243.515110	-155.817349	410.464872	202.348762	-160.003835	309.422918	187.510020	-92.165072	90.698391	1040.677082	-453.058440	176.678315	1035.262310	-451.266937	189.285797	1065.709077	-431.653263	251.198727	984.398781	-458.771346	374.764652	895.919230	-430.894968	361.863617	876.172921	-320.903064	280.887361	817.325318	-452.373575	234.152673	744.292294	-442.215881	155.029584	703.793520	-441.112176	257.403650	721.576822	-422.246973	70.714780	615.109036	-436.305628	109.024515	621.920475	-361.561015	-0.333968	621.441262	-391.630588	207.721915	411.421145	-402.170417	109.352173	465.115273	-461.603149	-219.719889	911.381121	-273.365872	-53.386955	79.736790	-474.940387	-53.377504	79.241359	-77.307406	
1004	5.0200	477.990430	1304.520846	-199.797533	451.831896	1289.937798	-453.172485	447.937524	1363.725652	-337.538486	387.155610	1213.732979	-316.062992	510.117484	1089.236346	-27.727262	693.591191	932.178907	-100.038914	453.462342	1031.559058	-585.538540	678.124461	921.631226	-489.101243	-103.681278	1179.029727	-248.231271	13.819383	1193.605150	-406.602547	58.358264	1200.320815	-122.902013	67.403009	1143.809192	-373.723552	96.723920	1135.663444	-155.625177	-64.106326	1225.769971	-209.743825	-74.784141	1230.143424	-295.611054	6.126959	1057.210003	-98.516344	-29.517437	1109.763735	-433.638506	73.932712	952.845867	-87.443139	133.776083	886.286510	-87.572830	150.387230	799.947926	-95.922794	165.414695	902.855738	-98.161828	227.575031	672.569597	-124.762590	201.210718	663.930332	-230.042836	192.600019	571.820495	-90.924219	208.126375	485.570574	-102.171276	182.164106	403.357160	-103.496132	234.499313	486.384975	-130.824614	179.786614	268.889025	-113.422429	187.194977	293.406436	-192.367148	107.785245	239.977303	-154.525667	402.421290	194.581500	-160.081803	301.492858	181.173884	-91.807973	90.551926	1044.559141	-452.470422	176.622583	1040.634894	-450.715671	188.584489	1071.148781	-430.859604	252.018258	991.054109	-458.385487	376.957279	904.675930	-431.643496	365.112860	885.022922	-321.043262	284.639696	825.686171	-452.428470	238.601902	752.211853	-442.230852	159.838826	711.050646	-441.093085	262.168540	729.600664	-422.467527	76.071760	621.088093	-436.113106	114.316868	628.575720	-361.426097	5.097767	626.469065	-391.775341	216.540182	419.797934	-402.166333	117.306234	471.756818	-461.597753	-219.738862	911.420193	-273.253244	-53.384421	79.787729	-474.913913	-53.361940	79.244074	-77.301114	
1005	5.0250	478.290895	1303.992497	-200.623573	450.833868	1290.579802	-454.084615	447.651520	1363.808520	-337.987412	386.874755	1213.918639	-316.785737	511.038442	1089.214356	-27.586312	693.738191	931.225913	-99.977147	453.190828	1032.226568	-585.790321	678.072136	922.341144	-488.789528	-103.702567	1179.151688	-246.003337	12.881911	1194.912138	-404.997527	58.308327	1198.756249	-122.616520	66.746059	1145.112939	-372.683343	97.229824	1134.563381	-155.002018	-63.384296	1225.334532	-207.508001	-75.349808	1230.746906	-293.020889	5.670493	1056.344205	-98.064986	-30.052352	1111.566312	-432.543354	71.475422	951.576166	-86.145600	130.148068	883.795067	-85.558536	145.298767	797.267606	-93.494439	162.148959	899.914720	-96.039942	220.513216	668.549537	-122.666167	194.905092	660.146984	-228.097515	185.025795	568.041589	-89.005414	200.422304	481.706176	-100.167162	174.267266	399.488545	-101.787285	226.941080	482.438677	-128.705237	172.330446	264.927442	-112.347529	179.872494	289.655380	-191.064559	100.028760	237.085393	-153.212939	393.974014	187.445673	-160.110454	293.176746	175.147493	-91.493418	90.275087	1048.112966	-451.840621	176.448272	1045.775461	-450.130768	187.765107	1076.264463	-429.876660	252.401479	997.157588	-457.229398	378.734002	913.480547	-432.447586	368.527494	893.214214	-321.495144	288.531293	833.730872	-452.263768	243.171382	759.803792	-442.142793	164.837217	717.925428	-441.177332	266.938622	737.228045	-422.452191	81.772042	626.347526	-435.942511	118.784447	634.092682	-360.597883	10.482438	630.253306	-391.617697	225.713564	427.629227	-402.136266	125.545229	477.910509	-461.602455	-219.749742	911.437059	-273.109228	-53.384559	79.718517	-474.817135	-53.377127	79.243139	-77.299574	
1006	5.0300	478.513533	1303.232981	-201.223068	449.772750	1291.234325	-454.879219	447.351350	1363.827068	-338.293019	386.531475	1214.033773	-317.444799	511.930532	1089.017658	-27.457697	694.224515	929.988555	-100.286597	452.885742	1032.802139	-586.033585	677.984263	923.153290	-488.580078	-103.763878	1179.351231	-244.003702	11.751745	1196.168713	-403.372060	59.423739	1197.665216	-121.241204	65.978505	1146.455918	-371.669730	97.698857	1133.586134	-154.438806	-62.749492	1225.130201	-205.503600	-77.840309	1231.710442	-289.947253	5.169515	1055.446030	-97.677070	-30.798506	1113.127732	-431.494436	69.216462	950.368580	-84.875023	126.760942	881.749048	-83.743387	140.533549	794.896513	-91.257327	159.098681	897.255026	-94.262626	213.901479	664.863164	-120.787784	189.134570	656.738169	-226.669007	177.585509	564.702075	-87.345980	192.981240	478.271455	-98.486696	166.463703	396.228008	-100.158503	219.718970	478.939236	-126.731783	164.625316	261.290532	-111.209333	171.822100	287.528061	-190.324794	92.014154	234.579950	-152.089003	385.183329	180.954147	-160.004499	284.471643	169.722972	-91.154588	89.873336	1051.333924	-451.117812	176.065017	1050.410764	-449.181083	186.829661	1080.996084	-428.794384	252.752520	1003.031821	-456.235769	381.942622	921.828461	-431.719459	371.589104	901.251002	-321.532059	292.413597	841.364750	-452.002147	247.845341	766.859378	-441.996706	170.011208	724.159703	-441.226333	271.915371	744.637138	-422.489959	87.779342	630.960402	-435.727147	125.646797	639.632545	-360.592230	16.259741	633.478026	-391.557640	235.128361	434.968366	-402.134025	134.197258	483.453805	-461.666644	-219.761063	911.437149	-272.989880	-53.376782	79.730614	-474.814267	-53.376611	79.240146	-77.271152	
